<svg width="30" height="31" viewBox="0 0 30 31" fill="none" xmlns="http://www.w3.org/2000/svg">
<g id="Icons">
<mask id="mask0_114225_5112" style="mask-type:alpha" maskUnits="userSpaceOnUse" x="-1" y="0" width="31" height="31">
<rect id="Bounding box" x="-0.00158691" y="0.98291" width="30" height="30" fill="#D9D9D9"/>
</mask>
<g mask="url(#mask0_114225_5112)">
<path id="edit_square" d="M4.62494 28.1853C3.95421 28.1853 3.38002 27.9465 2.90238 27.4688C2.42473 26.9912 2.18591 26.417 2.18591 25.7462V8.67308C2.18591 8.00235 2.42473 7.42816 2.90238 6.95052C3.38002 6.47287 3.95421 6.23405 4.62494 6.23405H15.5091L13.0701 8.67308H4.62494V25.7462H21.6981V17.2706L24.1371 14.8316V25.7462C24.1371 26.417 23.8983 26.9912 23.4207 27.4688C22.943 27.9465 22.3688 28.1853 21.6981 28.1853H4.62494ZM18.253 6.93527L19.9908 8.64259L11.942 16.6914V18.4292H13.6493L21.7286 10.3499L23.4664 12.0572L15.3871 20.1365C15.1636 20.3601 14.9044 20.5379 14.6097 20.67C14.315 20.8021 14.005 20.8682 13.6798 20.8682H10.7225C10.377 20.8682 10.0873 20.7513 9.8536 20.5176C9.61986 20.2839 9.50299 19.9942 9.50299 19.6487V16.6914C9.50299 16.3662 9.56396 16.0562 9.68591 15.7615C9.80786 15.4668 9.98063 15.2076 10.2042 14.9841L18.253 6.93527ZM23.4664 12.0572L18.253 6.93527L21.3018 3.88649C21.7896 3.39869 22.3739 3.15479 23.0548 3.15479C23.7357 3.15479 24.3099 3.39869 24.7774 3.88649L26.4847 5.6243C26.9522 6.09178 27.1859 6.66088 27.1859 7.33161C27.1859 8.00235 26.9522 8.57145 26.4847 9.03893L23.4664 12.0572Z" fill="white"/>
</g>
</g>
</svg>
